# xmcd
#
# Track frame offsets: 
#        150
#        20032
#        36975
#        55190
#        75930
#        89405
#        100535
#        111540
#        121242
#        137890
#        157550
#        163570
#        172527
#
# Disc length: 2538 seconds
#
# Revision: 20
# Processed by: cddbd v1.5.2PL0 Copyright (c) Steve Scherf et al.
# Submitted via: ExactAudioCopyFreeDBPlugin 1.0
#
DISCID=9209e80d
DTITLE=Tom Waits - Blood Money {Anti,6629-2}
DYEAR=2002
DGENRE=Alternative
TTITLE0=Misery Is The River Of The World
TTITLE1=Everything Goes To Hell
TTITLE2=Coney Island Baby
TTITLE3=All The World Is Green
TTITLE4=God's Away On Business
TTITLE5=Another Man's Vine
TTITLE6=Knife Chase
TTITLE7=Lullaby
TTITLE8=Starving In The Belly Of A Whale
TTITLE9=The Part You Throw Away
TTITLE10=Woe
TTITLE11=Calliope
TTITLE12=A Good Man Is Hard To Find
EXTD=
EXTT0=
EXTT1=
EXTT2=
EXTT3=
EXTT4=
EXTT5=
EXTT6=
EXTT7=
EXTT8=
EXTT9=
EXTT10=
EXTT11=
EXTT12=
PLAYORDER=
